<svg width="113" height="108" viewBox="0 0 113 108" fill="none" xmlns="http://www.w3.org/2000/svg">
<path opacity="0.467" fill-rule="evenodd" clip-rule="evenodd" d="M112.188 85.2987C112.188 91.1069 106.278 96.6772 95.7581 100.784C85.2385 104.891 70.9708 107.199 56.0938 107.199C41.2168 107.199 26.9491 104.891 16.4295 100.784C5.90987 96.6772 0 91.1069 0 85.2987C0 79.4904 5.90987 73.9201 16.4295 69.8131C26.9491 65.706 41.2168 63.3987 56.0938 63.3987C70.9708 63.3987 85.2385 65.706 95.7581 69.8131C106.278 73.9201 112.188 79.4904 112.188 85.2987Z" fill="url(#paint0_radial_53_3)"/>
<path fill-rule="evenodd" clip-rule="evenodd" d="M103.667 48.1557C103.667 60.9274 98.6269 73.176 89.6561 82.207C80.6854 91.238 68.5184 96.3115 55.8319 96.3115C43.1453 96.3115 30.9784 91.238 22.0077 82.207C13.0369 73.176 7.99719 60.9274 7.99719 48.1557C7.99719 35.384 13.0369 23.1354 22.0077 14.1045C30.9784 5.07354 43.1453 0 55.8319 0C68.5184 0 80.6854 5.07354 89.6561 14.1045C98.6269 23.1354 103.667 35.384 103.667 48.1557Z" fill="url(#paint1_radial_53_3)"/>
<path fill-rule="evenodd" clip-rule="evenodd" d="M79.579 48.1558C79.579 54.4961 77.0771 60.5769 72.6236 65.0602C68.1702 69.5435 62.13 72.0622 55.8319 72.0622C49.5338 72.0622 43.4936 69.5435 39.0401 65.0602C34.5867 60.5769 32.0848 54.4961 32.0848 48.1558C32.0848 41.8154 34.5867 35.7347 39.0401 31.2513C43.4936 26.768 49.5338 24.2493 55.8319 24.2493C62.13 24.2493 68.1702 26.768 72.6236 31.2513C77.0771 35.7347 79.579 41.8154 79.579 48.1558Z" fill="#3F7F00"/>
<path fill-rule="evenodd" clip-rule="evenodd" d="M103.78 48.1821C103.78 60.9538 98.7404 73.2024 89.7697 82.2334C80.7989 91.2643 68.632 96.3378 55.9454 96.3378C43.2589 96.3378 31.0919 91.2643 22.1212 82.2334C13.1504 73.2024 8.11072 60.9538 8.11072 48.1821C8.11072 35.4104 13.1504 23.1618 22.1212 14.1309C31.0919 5.09991 43.2589 0.0263672 55.9454 0.0263672C68.632 0.0263672 80.7989 5.09991 89.7697 14.1309C98.7404 23.1618 103.78 35.4104 103.78 48.1821Z" fill="url(#paint2_radial_53_3)"/>
<path fill-rule="evenodd" clip-rule="evenodd" d="M52.9377 24.4325C52.8454 24.4439 52.753 24.4556 52.661 24.468C52.7769 25.0087 52.8929 25.551 53.0055 26.085C52.9816 25.5396 52.9603 24.9853 52.9377 24.4325V24.4325ZM53.0056 26.085C53.3509 33.9354 53.8647 40.9312 55.2059 43.4563C55.8751 40.6735 54.6276 33.772 53.0056 26.085ZM55.2059 43.4563C55.0464 44.1197 54.7909 44.5778 54.3947 44.7318C53.9979 44.886 53.5025 44.7177 52.9405 44.333C53.1065 44.9968 53.0932 45.5239 52.813 45.8462C52.5332 46.168 52.0165 46.2511 51.3424 46.1739C51.7947 46.6833 52.025 47.1564 51.9258 47.5724C51.8264 47.9889 51.4069 48.303 50.7727 48.5502C51.4095 48.7897 51.8323 49.0991 51.9366 49.5143C52.0408 49.929 51.8157 50.4035 51.3696 50.9182C52.044 50.8324 52.5589 50.9108 52.8428 51.2296C53.1265 51.5481 53.1468 52.0727 52.9893 52.7373C53.5463 52.3465 54.0398 52.1728 54.4381 52.3222C54.8369 52.4717 55.0983 52.9285 55.2656 53.5922C55.5786 52.9847 55.9343 52.6003 56.3563 52.5461C56.778 52.492 57.2181 52.7752 57.6721 53.2836C57.6688 52.5994 57.8092 52.0923 58.1578 51.8469C58.506 51.6019 59.0247 51.6451 59.6608 51.8824C59.3427 51.2788 59.2322 50.7629 59.4275 50.3829C59.6229 50.0025 60.1044 49.7983 60.7786 49.711C60.2172 49.325 59.8804 48.9238 59.8778 48.4955C59.8753 48.0671 60.2078 47.6593 60.7651 47.2664C60.0899 47.1873 59.6057 46.9889 59.4058 46.6109C59.2059 46.2329 59.3112 45.7169 59.6228 45.1087C58.9881 45.3547 58.4687 45.4045 58.117 45.1633C57.7656 44.9222 57.6199 44.4191 57.6151 43.7348C57.1674 44.2481 56.7295 44.5349 56.3074 44.4859C55.8855 44.4369 55.5257 44.0583 55.2059 43.4562L55.2059 43.4563ZM57.6152 43.7349C59.4918 41.5836 61.5729 34.893 63.6846 27.3304C60.3687 34.4386 57.5951 40.871 57.6152 43.7349ZM63.6846 27.3304C63.9125 26.842 64.1467 26.3468 64.3792 25.8528C64.2928 25.8192 64.2084 25.7816 64.1214 25.749C63.9756 26.2779 63.8303 26.8089 63.6846 27.3304L63.6846 27.3304ZM59.6231 45.1086C62.2795 44.0789 67.2143 39.1276 72.5757 33.4186C66.3552 38.1635 60.9283 42.5624 59.6231 45.1086ZM72.5757 33.4186C72.9707 33.1173 73.3741 32.8129 73.7749 32.5091C73.7192 32.4444 73.6631 32.3793 73.6067 32.3152C73.2623 32.6842 72.917 33.0552 72.5757 33.4186L72.5757 33.4186ZM60.7655 47.2664C63.5923 47.5978 70.2451 45.5224 77.6277 42.9754C69.9313 44.2663 63.097 45.6226 60.7655 47.2663V47.2664ZM77.6277 42.9755C78.069 42.9015 78.5187 42.8279 78.9652 42.7542C78.9478 42.6785 78.9291 42.603 78.911 42.5275C78.4825 42.6767 78.0518 42.8292 77.6277 42.9755ZM60.779 49.711C63.1288 51.3266 69.9771 52.6016 77.687 53.7998C70.277 51.3425 63.6012 49.3459 60.779 49.711ZM77.687 53.7998C78.0606 53.9237 78.4414 54.0507 78.8184 54.1768C78.8353 54.1114 78.851 54.0456 78.8673 53.9801C78.4738 53.92 78.0765 53.8604 77.6871 53.7998H77.687ZM59.6611 51.8824C60.9943 54.4122 66.4731 58.7446 72.749 63.4142C67.32 57.7694 62.3283 52.8778 59.6611 51.8824ZM72.749 63.4142C72.9852 63.6598 73.2249 63.9117 73.4626 64.1599C73.5016 64.1164 73.5405 64.0726 73.5793 64.0288C73.3029 63.8241 73.0226 63.6178 72.749 63.4143L72.749 63.4142ZM57.6723 53.2839C57.6861 56.1486 60.5359 62.5472 63.9369 69.6172C61.7359 62.08 59.5744 55.4135 57.6723 53.2839ZM63.9369 69.6172C64.0247 69.918 64.1121 70.226 64.2 70.5294C64.2503 70.5104 64.2992 70.4888 64.3493 70.4694C64.2121 70.1857 64.0723 69.8988 63.9369 69.6172V69.6172ZM55.2657 53.5924C53.9559 56.1349 53.5238 63.1312 53.2715 70.9799C54.8011 63.2802 55.9656 56.3689 55.2657 53.5924ZM53.2715 70.9799C53.2113 71.283 53.1483 71.5923 53.0871 71.8977C53.1396 71.9038 53.1917 71.911 53.2444 71.9168C53.2538 71.605 53.2616 71.2892 53.2715 70.9799V70.9799ZM52.9894 52.7372C50.6551 54.3749 47.0439 60.3745 43.195 67.2107C48.1077 61.104 52.3293 55.5233 52.9894 52.7372ZM43.195 67.2107C42.9891 67.4667 42.7765 67.7259 42.5683 67.9837C42.6155 68.0158 42.6646 68.0448 42.7121 68.0765C42.8734 67.7886 43.0345 67.4958 43.195 67.2107H43.195ZM51.3694 50.9183C48.5466 51.2774 42.5812 54.8951 36.0211 59.1449C43.1867 56.0372 49.4993 53.0751 51.3694 50.9183ZM36.0211 59.1449C35.6784 59.2935 35.3283 59.4436 34.982 59.5928C35.0125 59.649 35.046 59.7035 35.077 59.7595C35.3915 59.5546 35.7091 59.3471 36.0211 59.1449H36.0211ZM50.7722 48.55C48.1067 47.5475 41.1551 47.9597 33.384 48.6538C41.1625 49.2545 48.1186 49.5843 50.7722 48.55ZM33.384 48.6538C32.9594 48.621 32.5271 48.5843 32.098 48.55C32.0992 48.6238 32.1016 48.6977 32.1035 48.7713C32.5308 48.732 32.9612 48.6916 33.3841 48.6538H33.384ZM51.3423 46.1738C49.4477 44.0398 43.1042 41.1561 35.9045 38.1357C42.5136 42.3058 48.5176 45.8508 51.3423 46.1738ZM35.9045 38.1357C35.4926 37.8758 35.0754 37.6079 34.6592 37.3436C34.6212 37.4188 34.5798 37.492 34.5426 37.5676C34.9978 37.757 35.4553 37.9472 35.9045 38.1357L35.9045 38.1357ZM52.9405 44.3329C52.2459 41.5553 47.9588 36.0311 42.978 29.9881C46.9057 36.7738 50.5876 42.7227 52.9405 44.3329ZM42.978 29.9881C42.7138 29.5317 42.4465 29.0666 42.1804 28.6034C42.1067 28.6556 42.0337 28.7087 41.9606 28.7618C42.3009 29.1719 42.6434 29.5822 42.9781 29.9881H42.978Z" fill="url(#paint3_radial_53_3)"/>
<path opacity="0.36" fill-rule="evenodd" clip-rule="evenodd" d="M59.132 24.5657C59.0399 24.5526 58.9477 24.5399 58.8556 24.5279C58.8286 25.0803 58.8012 25.6344 58.7727 26.1795C58.8898 25.6464 59.0117 25.1055 59.132 24.5657V24.5657ZM58.7727 26.1795C57.088 33.8524 55.7857 40.7436 56.4321 43.5324C57.7939 41.0187 58.3633 34.0274 58.7727 26.1795ZM56.4321 43.5324C56.1074 44.1316 55.7428 44.5076 55.3206 44.5531C54.8976 44.5986 54.4624 44.307 54.0184 43.789C54.0081 44.4734 53.8597 44.9791 53.5062 45.2173C53.1532 45.4553 52.6327 45.4009 52.0015 45.1508C52.3074 45.7606 52.4082 46.2776 52.2055 46.6536C52.0024 47.03 51.5165 47.2241 50.8403 47.2976C51.3938 47.6949 51.7227 48.104 51.7166 48.5322C51.7106 48.9599 51.3713 49.3596 50.808 49.7405C51.4815 49.8334 51.9586 50.0432 52.1509 50.4252C52.3431 50.8068 52.2279 51.3187 51.9048 51.9197C52.5433 51.6873 53.0647 51.6481 53.411 51.8961C53.7577 52.1445 53.8928 52.6539 53.8838 53.3385C54.3422 52.8332 54.7847 52.5546 55.2062 52.6123C55.6275 52.6699 55.9798 53.0581 56.2876 53.6675C56.4604 53.0057 56.7263 52.5524 57.1261 52.4063C57.5254 52.2603 58.0154 52.4372 58.5688 52.8322C58.4167 52.1662 58.4427 51.6392 58.729 51.323C59.0155 51.0065 59.5331 50.9346 60.2068 51.026C59.7637 50.5069 59.5416 50.0316 59.6492 49.6173C59.7569 49.2028 60.1829 48.8955 60.8222 48.6613C60.1903 48.4089 59.7737 48.0911 59.6777 47.6739C59.5818 47.2567 59.8162 46.7857 60.2736 46.2795C59.5972 46.3517 59.0827 46.2645 58.8051 45.9399C58.5275 45.6154 58.5162 45.0915 58.6875 44.4293C58.123 44.8084 57.6263 44.9714 57.2312 44.8141C56.8362 44.6568 56.5861 44.1973 56.4319 43.5325L56.4321 43.5324ZM58.6876 44.4292C61.0534 42.8401 64.7837 36.9198 68.7675 30.1653C63.7369 36.1674 59.4044 41.6576 58.6876 44.4292ZM68.7675 30.1653C69.1131 29.7529 69.4667 29.3357 69.8183 28.919C69.7434 28.864 69.6716 28.8057 69.596 28.7516C69.3191 29.2245 69.0422 29.6995 68.7675 30.1653L68.7675 30.1653ZM60.2735 46.2793C63.1041 45.9769 69.1438 42.4801 75.7899 38.3625C68.5614 41.3249 62.1886 44.1598 60.2735 46.2793ZM75.7899 38.3625C76.2489 38.1744 76.7168 37.9855 77.1821 37.7964C77.1449 37.7194 77.1075 37.6419 77.0694 37.5653C76.6419 37.832 76.213 38.1004 75.7899 38.3625L75.7899 38.3625ZM60.8218 48.6612C63.4671 49.7179 70.4272 49.4466 78.2126 48.91C70.4464 48.1515 63.4964 47.6809 60.8218 48.6612ZM78.2126 48.91C78.658 48.9535 79.1113 48.9995 79.5615 49.0448C79.5642 48.9671 79.5655 48.8893 79.5674 48.8117C79.1151 48.8441 78.6599 48.8791 78.2126 48.91H78.2126ZM60.2067 51.026C62.0611 53.1987 68.3484 56.2146 75.4874 59.3809C68.9617 55.0766 63.0263 51.4083 60.2067 51.026ZM75.4874 59.3809C75.8164 59.5979 76.1515 59.8198 76.4833 60.0398C76.5164 59.9811 76.5484 59.9216 76.581 59.8626C76.2164 59.7019 75.8479 59.5408 75.4874 59.3809L75.4874 59.3809ZM58.5684 52.8321C59.2059 55.6231 63.3842 61.2354 68.2458 67.3812C64.4531 60.5143 60.889 54.4884 58.5684 52.8321ZM68.2458 67.3812C68.4108 67.6799 68.5776 67.9857 68.7433 68.2874C68.7922 68.2555 68.8411 68.2234 68.8897 68.1912C68.6754 67.9214 68.4577 67.6491 68.2458 67.3812L68.2458 67.3812ZM56.2872 53.6675C55.564 56.4382 56.6716 63.3615 58.1391 71.0766C57.9508 63.2231 57.5769 56.2203 56.2872 53.6675ZM58.1391 71.0766C58.1466 71.3901 58.1518 71.7103 58.1588 72.0264C58.2122 72.0211 58.265 72.0129 58.3183 72.0072C58.2588 71.6975 58.1975 71.384 58.1391 71.0766V71.0766ZM53.8832 53.3384C51.9644 55.453 49.7483 62.0985 47.4868 69.6141C50.9438 62.5753 53.8453 56.2028 53.8832 53.3384ZM47.4868 69.6141C47.3508 69.8911 47.2104 70.1735 47.0727 70.4525C47.1219 70.4721 47.1703 70.4927 47.2197 70.512C47.309 70.2133 47.3977 69.9102 47.4868 69.6141V69.6141ZM51.9045 51.9198C49.2287 52.8935 44.198 57.7475 38.7226 63.3479C45.0379 58.7292 50.5503 54.4388 51.9045 51.9198ZM38.7226 63.3479C38.4579 63.5415 38.186 63.7365 37.9186 63.9312C37.9559 63.9745 37.9959 64.0154 38.0336 64.0584C38.2634 63.8223 38.4943 63.5815 38.7227 63.3479L38.7226 63.3479ZM50.8075 49.7405C47.9885 49.352 41.2964 51.2921 33.8671 53.6879C41.5876 52.5532 48.4467 51.337 50.8075 49.7405ZM33.8671 53.688C33.4979 53.7422 33.1212 53.796 32.7482 53.8499C32.7633 53.9121 32.7816 53.9735 32.7971 54.0356C33.1536 53.9197 33.5137 53.8019 33.8671 53.688H33.8671ZM50.8398 47.2978C48.5228 45.6349 41.7024 44.2218 34.0173 42.8672C41.3763 45.4742 48.0106 47.605 50.8398 47.2978ZM34.0173 42.8672C33.6156 42.7249 33.2075 42.5768 32.8018 42.4319C32.784 42.5035 32.7673 42.5754 32.7501 42.647C33.173 42.7204 33.5991 42.7935 34.0173 42.8672H34.0173ZM52.0014 45.1508C50.7199 42.5958 45.3338 38.1572 39.1561 33.3641C44.4678 39.1139 49.356 44.1027 52.0014 45.1508ZM39.1561 33.3641C38.825 33.0057 38.4909 32.6383 38.1569 32.2745C38.1009 32.3372 38.042 32.3971 37.9866 32.4604C38.3777 32.762 38.7707 33.065 39.1561 33.364L39.1561 33.3641ZM54.0181 43.7889C54.0613 40.9249 51.3406 34.4719 48.0831 27.3369C50.1323 34.9149 52.1596 41.6202 54.0181 43.7889ZM48.0831 27.3369C47.9453 26.8272 47.8067 26.3083 47.6687 25.7915C47.584 25.8228 47.4999 25.855 47.4156 25.8872C47.6388 26.372 47.8643 26.8576 48.0831 27.3369L48.0831 27.3369Z" fill="url(#paint4_radial_53_3)"/>
<path fill-rule="evenodd" clip-rule="evenodd" d="M65.1501 48.1569C65.1501 50.6442 64.1686 53.0296 62.4216 54.7884C60.6745 56.5472 58.305 57.5353 55.8343 57.5353C53.3635 57.5353 50.994 56.5472 49.2469 54.7884C47.4999 53.0296 46.5184 50.6442 46.5184 48.1569C46.5184 45.6696 47.4999 43.2841 49.2469 41.5253C50.994 39.7666 53.3635 38.7785 55.8343 38.7785C58.305 38.7785 60.6745 39.7666 62.4216 41.5253C64.1686 43.2841 65.1501 45.6696 65.1501 48.1569Z" fill="black"/>
<path opacity="0.766" fill-rule="evenodd" clip-rule="evenodd" d="M61.3291 43.7717C61.3329 44.1994 61.1935 44.6234 60.9191 45.0191C60.6447 45.4149 60.2406 45.7748 59.7301 46.078C59.2195 46.3812 58.6126 46.6219 57.9442 46.7861C57.2758 46.9502 56.5591 47.0348 55.8352 47.0348C55.1113 47.0348 54.3946 46.9502 53.7262 46.7861C53.0578 46.6219 52.4508 46.3812 51.9403 46.078C51.4298 45.7748 51.0257 45.4149 50.7513 45.0191C50.4769 44.6234 50.3375 44.1994 50.3413 43.7717C50.3375 43.344 50.4769 42.9201 50.7513 42.5243C51.0257 42.1285 51.4298 41.7686 51.9403 41.4654C52.4508 41.1622 53.0578 40.9215 53.7262 40.7574C54.3946 40.5932 55.1113 40.5086 55.8352 40.5086C56.5591 40.5086 57.2758 40.5932 57.9442 40.7574C58.6126 40.9215 59.2195 41.1622 59.7301 41.4654C60.2406 41.7686 60.6447 42.1285 60.9191 42.5243C61.1935 42.9201 61.3329 43.344 61.3291 43.7717Z" fill="url(#paint5_linear_53_3)"/>
<path fill-rule="evenodd" clip-rule="evenodd" d="M71.3636 37.2616C71.3636 38.676 70.9702 40.0766 70.2058 41.3834C69.4415 42.6902 68.3212 43.8776 66.9089 44.8777C65.4966 45.8779 63.8199 46.6713 61.9746 47.2125C60.1294 47.7538 58.1516 48.0324 56.1543 48.0324C54.157 48.0324 52.1792 47.7538 50.334 47.2125C48.4887 46.6713 46.812 45.8779 45.3997 44.8777C43.9874 43.8776 42.8671 42.6902 42.1027 41.3834C41.3384 40.0766 40.945 38.676 40.945 37.2616C40.945 35.8472 41.3384 34.4466 42.1027 33.1398C42.8671 31.833 43.9874 30.6456 45.3997 29.6455C46.812 28.6453 48.4887 27.8519 50.334 27.3107C52.1792 26.7694 54.157 26.4908 56.1543 26.4908C58.1516 26.4908 60.1294 26.7694 61.9746 27.3107C63.8199 27.8519 65.4966 28.6453 66.9089 29.6455C68.3212 30.6456 69.4415 31.833 70.2058 33.1398C70.9702 34.4466 71.3636 35.8472 71.3636 37.2616Z" fill="url(#paint6_linear_53_3)"/>
<path opacity="0.523" fill-rule="evenodd" clip-rule="evenodd" d="M42.2035 45.1806C42.2035 46.2168 41.7947 47.2106 41.0668 47.9433C40.339 48.676 39.3519 49.0876 38.3226 49.0876C37.2933 49.0876 36.3062 48.676 35.5784 47.9433C34.8505 47.2106 34.4417 46.2168 34.4417 45.1806C34.4417 44.1444 34.8505 43.1507 35.5784 42.418C36.3062 41.6853 37.2933 41.2736 38.3226 41.2736C39.3519 41.2736 40.339 41.6853 41.0668 42.418C41.7947 43.1507 42.2035 44.1444 42.2035 45.1806Z" fill="url(#paint7_linear_53_3)"/>
<path opacity="0.9" fill-rule="evenodd" clip-rule="evenodd" d="M92.9499 30.7401C90.8776 32.8238 88.128 34.647 84.8579 36.1056C81.5879 37.5642 77.8615 38.6297 73.8915 39.2411C69.9215 39.8525 65.7857 39.998 61.7202 39.6691C57.6546 39.3403 53.739 38.5436 50.1968 37.3246C46.6547 36.1055 43.5554 34.488 41.0759 32.5643C38.5964 30.6407 36.7852 28.4485 35.7459 26.1131C34.7065 23.7777 34.4593 21.3447 35.0183 18.9531C35.5773 16.5615 36.9315 14.258 39.0038 12.1743C41.0761 10.0906 43.8257 8.26735 47.0958 6.80873C50.3658 5.35012 54.0922 4.28469 58.0622 3.67326C62.0322 3.06183 66.168 2.91639 70.2336 3.24523C74.2991 3.57407 78.2147 4.37076 81.7569 5.5898C85.299 6.80884 88.3983 8.42637 90.8778 10.35C93.3573 12.2737 95.1685 14.4658 96.2078 16.8012C97.2472 19.1367 97.4944 21.5696 96.9355 23.9613C96.3765 26.3529 95.0222 28.6563 92.9499 30.7401Z" fill="url(#paint8_linear_53_3)"/>
<path opacity="0.9" fill-rule="evenodd" clip-rule="evenodd" d="M28.6603 30.7357C28.6015 32.9894 28.3851 35.1885 28.0234 37.2076C27.6617 39.2267 27.1618 41.0262 26.5522 42.5033C25.9426 43.9804 25.2353 45.1062 24.4706 45.8164C23.7059 46.5266 22.8988 46.8073 22.0955 46.6425C21.2921 46.4778 20.5082 45.8707 19.7885 44.856C19.0687 43.8413 18.4273 42.4388 17.9008 40.7287C17.3742 39.0186 16.9729 37.0343 16.7198 34.8891C16.4666 32.7438 16.3665 30.4797 16.4253 28.226C16.484 25.9723 16.7004 23.7732 17.0621 21.7541C17.4238 19.735 17.9237 17.9355 18.5333 16.4584C19.1429 14.9813 19.8503 13.8555 20.6149 13.1453C21.3796 12.4351 22.1867 12.1544 22.9901 12.3192C23.7934 12.4839 24.5773 13.091 25.2971 14.1057C26.0168 15.1204 26.6583 16.5229 27.1848 18.233C27.7113 19.9431 28.1126 21.9274 28.3658 24.0726C28.6189 26.2179 28.719 28.4819 28.6603 30.7357Z" fill="url(#paint9_linear_53_3)"/>
<defs>
<radialGradient id="paint0_radial_53_3" cx="0" cy="0" r="1" gradientUnits="userSpaceOnUse" gradientTransform="translate(56.0935 85.3021) scale(56.0951 21.8998)">
<stop/>
<stop offset="1" stop-opacity="0"/>
</radialGradient>
<radialGradient id="paint1_radial_53_3" cx="0" cy="0" r="1" gradientUnits="userSpaceOnUse" gradientTransform="translate(55.1052 45.2383) scale(22.1735 22.3223)">
<stop stop-color="#F8F8F8"/>
<stop offset="1" stop-color="#DBDBDB"/>
</radialGradient>
<radialGradient id="paint2_radial_53_3" cx="0" cy="0" r="1" gradientUnits="userSpaceOnUse" gradientTransform="translate(60.0429 64.6245) scale(46.9756 47.2909)">
<stop stop-color="white" stop-opacity="0"/>
<stop offset="1" stop-opacity="0.173"/>
</radialGradient>
<radialGradient id="paint3_radial_53_3" cx="0" cy="0" r="1" gradientUnits="userSpaceOnUse" gradientTransform="translate(55.5311 48.1758) scale(23.4329 23.7424)">
<stop stop-color="#5DA8FF"/>
<stop offset="1" stop-color="#5DA8FF" stop-opacity="0"/>
</radialGradient>
<radialGradient id="paint4_radial_53_3" cx="0" cy="0" r="1" gradientUnits="userSpaceOnUse" gradientTransform="translate(55.5315 48.1756) rotate(15.0957) scale(23.444 23.7316)">
<stop stop-color="#5DA8FF"/>
<stop offset="1" stop-color="#5DA8FF" stop-opacity="0"/>
</radialGradient>
<linearGradient id="paint5_linear_53_3" x1="55.7866" y1="40.659" x2="55.8038" y2="47.1314" gradientUnits="userSpaceOnUse">
<stop stop-color="white"/>
<stop offset="1" stop-color="white" stop-opacity="0"/>
</linearGradient>
<linearGradient id="paint6_linear_53_3" x1="55.6688" y1="23.5529" x2="55.4253" y2="40.5288" gradientUnits="userSpaceOnUse">
<stop stop-color="white"/>
<stop offset="1" stop-color="white" stop-opacity="0"/>
</linearGradient>
<linearGradient id="paint7_linear_53_3" x1="38.793" y1="41.5103" x2="38.7334" y2="47.3116" gradientUnits="userSpaceOnUse">
<stop stop-color="white"/>
<stop offset="1" stop-color="white" stop-opacity="0"/>
</linearGradient>
<linearGradient id="paint8_linear_53_3" x1="56.5175" y1="7.28586" x2="58.7415" y2="25.0045" gradientUnits="userSpaceOnUse">
<stop stop-color="white"/>
<stop offset="1" stop-color="white" stop-opacity="0"/>
</linearGradient>
<linearGradient id="paint9_linear_53_3" x1="21.2284" y1="15.4016" x2="32.5432" y2="24.1949" gradientUnits="userSpaceOnUse">
<stop stop-color="white"/>
<stop offset="1" stop-color="white" stop-opacity="0"/>
</linearGradient>
</defs>
</svg>
